<svg width="32" height="32" viewBox="0 0 32 32" fill="none" xmlns="http://www.w3.org/2000/svg">
<path d="M22.3653 15.9531L31.8986 25.4887H28.5347C27.9581 25.4881 27.4053 25.2586 26.9978 24.8505L18.1242 15.9531L27.0051 7.04836C27.4137 6.64293 27.9664 6.41607 28.542 6.41749L31.8986 6.41748L22.3653 15.9531ZM4.89353 7.04836C4.48487 6.64293 3.93219 6.41607 3.3566 6.41749L0 6.41748L9.53333 15.9531L0 25.4887H3.36385C3.94048 25.4881 4.4933 25.2586 4.90078 24.8505L13.7744 15.9531L4.89353 7.04836ZM15.9493 18.1285L7.04669 27.0114C6.64136 27.4202 6.41455 27.973 6.41597 28.5487L6.41596 31.9061L15.9493 22.3706L25.4826 31.9061L25.4826 28.5487C25.484 27.973 25.2572 27.4202 24.8519 27.0114L15.9493 18.1285ZM15.9493 13.7777L24.8519 4.89469C25.2572 4.48593 25.484 3.93312 25.4826 3.3574L25.4826 0L15.9493 9.53559L6.41596 0L6.41597 3.3574C6.41455 3.93312 6.64136 4.48593 7.04669 4.89469L15.9493 13.7777Z" fill="url(#paint0_linear_21234_105974)"/>
<defs>
<linearGradient id="paint0_linear_21234_105974" x1="0" y1="15.9531" x2="31.8986" y2="15.9531" gradientUnits="userSpaceOnUse">
<stop stop-color="#00BFFF"/>
<stop offset="1" stop-color="#6619FF"/>
</linearGradient>
</defs>
</svg>
