<svg width="345" height="182" viewBox="0 0 345 182" fill="none" xmlns="http://www.w3.org/2000/svg">
<path d="M121.049 30.2222C172.467 65.1751 244.41 177.667 200.669 177.667C168.359 177.667 75.6891 178.47 47.2932 178.47C18.8973 178.47 14.2426 144.803 23.8038 99.3244C38.1636 31.0258 14.1922 -42.3993 121.049 30.2222Z" fill="#A682FF" fill-opacity="0.6146"/>
<path d="M323.384 116.075L326.006 112.568H342.646V109.291H307.321V116.075H323.384ZM319.176 111.694H321.246V113.764H319.176V111.694ZM314.93 111.694H317V113.764H314.93V111.694ZM310.684 111.694H312.754V113.764H310.684V111.694Z" fill="#B5BFC7"/>
<path d="M327.043 114.638L324.421 118.145H307.321V144.615H342.646V114.638H327.043ZM319.625 135.592L318.162 137.055L312.349 131.242L318.162 125.429L319.625 126.893L315.276 131.242L319.625 135.592ZM322.406 139.296L320.524 138.436L327.492 123.188L329.375 124.049L322.406 139.296ZM331.805 137.055L330.342 135.592L334.691 131.242L330.342 126.893L331.805 125.429L337.618 131.242L331.805 137.055Z" fill="#B5BFC7"/>
<path d="M282.009 137.653C280.973 137.229 280.53 136.666 280.573 135.826C280.617 134.846 280.06 134.127 279.796 133.844C279.956 133.234 280.422 131.125 279.797 129.293C279.124 127.332 277.072 124.337 274.954 121.394C274.088 120.185 274.047 118.871 273.999 117.349C273.954 115.898 273.903 114.252 273.093 112.424C272.213 110.432 270.447 109.291 268.248 109.291C266.94 109.291 265.597 109.699 264.564 110.412C262.448 111.872 262.728 115.057 262.913 117.163C262.938 117.452 262.962 117.724 262.976 117.957C263.099 120.021 262.987 121.108 262.84 121.439C262.746 121.655 262.279 122.269 261.784 122.92C261.273 123.593 260.694 124.356 260.219 125.068C259.652 125.923 259.195 127.231 258.752 128.495C258.428 129.421 258.123 130.295 257.825 130.817C257.261 131.822 257.401 132.759 257.518 133.192C257.305 133.341 256.996 133.633 256.736 134.183C256.421 134.855 255.782 135.216 254.454 135.471C253.844 135.596 253.423 135.853 253.203 136.234C252.883 136.789 253.057 137.486 253.216 137.963C253.451 138.663 253.305 139.107 253.038 139.912C252.977 140.097 252.907 140.308 252.837 140.54C252.726 140.906 252.766 141.239 252.956 141.529C253.457 142.296 254.921 142.566 256.428 142.744C257.327 142.851 258.312 143.211 259.265 143.559C260.198 143.9 261.163 144.253 262.04 144.36C262.173 144.376 262.305 144.385 262.432 144.385C263.757 144.385 264.355 143.506 264.545 143.145C265.02 143.048 266.661 142.737 268.352 142.696C270.04 142.647 271.673 142.981 272.136 143.084C272.282 143.363 272.665 143.999 273.276 144.326C273.612 144.51 274.08 144.615 274.559 144.615C274.559 144.615 274.559 144.615 274.559 144.615C275.07 144.615 276.043 144.494 276.813 143.684C277.582 142.87 279.501 141.831 280.902 141.072C281.215 140.903 281.507 140.745 281.764 140.602C282.551 140.165 282.981 139.542 282.942 138.891C282.91 138.35 282.553 137.876 282.009 137.653ZM264.581 137.497C264.483 136.806 263.595 136.122 262.567 135.329C261.726 134.681 260.773 133.946 260.51 133.324C259.968 132.041 260.396 129.784 261.141 128.622C261.51 128.04 261.811 127.157 262.102 126.304C262.416 125.382 262.741 124.43 263.105 124.013C263.681 123.361 264.213 122.095 264.307 121.096C264.846 121.611 265.683 122.264 266.455 122.264C266.574 122.264 266.69 122.248 266.8 122.217C267.329 122.065 268.106 121.615 268.858 121.181C269.506 120.806 270.306 120.344 270.606 120.302C271.122 121.043 274.119 127.675 274.425 129.805C274.668 131.49 274.412 132.883 274.283 133.429C274.179 133.415 274.056 133.403 273.926 133.403C273.091 133.403 272.871 133.859 272.813 134.131C272.665 134.838 272.649 137.098 272.648 137.606C272.346 137.989 270.819 139.795 268.628 140.12C267.735 140.249 266.902 140.315 266.151 140.315C265.509 140.315 265.099 140.266 264.929 140.24L263.827 138.98C264.262 138.765 264.696 138.313 264.581 137.497ZM265.979 116.72C265.944 116.735 265.91 116.751 265.877 116.768C265.874 116.693 265.866 116.618 265.854 116.542C265.734 115.85 265.275 115.347 264.763 115.347C264.725 115.347 264.687 115.35 264.645 115.357C264.341 115.407 264.102 115.636 263.971 115.96C264.086 115.249 264.489 114.722 264.968 114.722C265.529 114.722 266.004 115.479 266.004 116.375C266.004 116.488 265.996 116.6 265.979 116.72ZM270.343 117.254C270.395 117.09 270.423 116.913 270.423 116.729C270.423 115.917 269.907 115.28 269.249 115.28C268.606 115.28 268.083 115.93 268.083 116.729C268.083 116.783 268.086 116.838 268.091 116.892C268.057 116.879 268.024 116.867 267.991 116.854C267.917 116.63 267.88 116.396 267.88 116.158C267.88 115.186 268.501 114.396 269.264 114.396C270.027 114.396 270.648 115.186 270.648 116.158C270.648 116.562 270.536 116.947 270.343 117.254ZM269.781 119.144C269.77 119.194 269.746 119.215 269.488 119.35C269.357 119.418 269.194 119.503 268.991 119.627L268.855 119.709C268.308 120.04 267.029 120.816 266.682 120.862C266.446 120.893 266.3 120.802 265.972 120.579C265.898 120.528 265.819 120.475 265.735 120.421C265.143 120.033 264.763 119.605 264.72 119.438C264.913 119.289 265.391 118.916 265.635 118.695C266.132 118.233 266.632 117.923 266.879 117.923C266.893 117.923 266.904 117.924 266.917 117.926C267.207 117.978 267.924 118.264 268.448 118.473C268.69 118.569 268.899 118.653 269.046 118.706C269.51 118.865 269.751 119.068 269.781 119.144ZM273.944 140.73C274.205 139.551 274.507 137.947 274.458 137.001C274.447 136.786 274.428 136.552 274.409 136.326C274.375 135.903 274.324 135.275 274.376 135.089C274.387 135.084 274.398 135.08 274.411 135.076C274.413 135.617 274.531 136.695 275.393 137.071C275.65 137.183 275.944 137.24 276.266 137.24C277.13 137.24 278.089 136.816 278.481 136.424C278.712 136.192 278.907 135.91 279.043 135.686C279.073 135.773 279.091 135.887 279.082 136.034C279.03 136.831 279.418 137.889 280.155 138.279L280.263 138.335C280.525 138.473 281.223 138.839 281.234 139.013C281.234 139.013 281.228 139.034 281.189 139.07C281.015 139.229 280.4 139.544 279.805 139.847C278.75 140.386 277.553 140.997 277.016 141.562C276.26 142.358 275.405 142.892 274.888 142.892C274.826 142.892 274.769 142.885 274.719 142.869C274.158 142.694 273.696 141.884 273.944 140.73ZM254.821 137.722C254.764 137.454 254.719 137.242 254.767 137.038C254.802 136.886 255.551 136.723 255.871 136.654C256.321 136.556 256.786 136.455 257.09 136.271C257.501 136.022 257.724 135.562 257.921 135.157C258.063 134.864 258.21 134.561 258.384 134.461C258.394 134.455 258.409 134.449 258.438 134.449C258.766 134.449 259.453 135.137 259.848 135.753C259.949 135.908 260.135 136.22 260.35 136.58C260.994 137.657 261.875 139.132 262.335 139.626C262.75 140.07 263.421 140.925 263.256 141.658C263.135 142.226 262.492 142.689 262.34 142.791C262.285 142.803 262.216 142.81 262.136 142.81C261.255 142.81 259.511 142.077 258.575 141.683L258.436 141.625C257.913 141.405 257.059 141.267 256.233 141.134C255.576 141.027 254.676 140.882 254.526 140.75C254.406 140.614 254.546 140.173 254.67 139.784C254.759 139.505 254.851 139.216 254.901 138.913C254.972 138.43 254.888 138.037 254.821 137.722Z" fill="#B5BFC7"/>
<path d="M307.321 54.1334V65.9083H323.806V52.0728L307.321 54.1334Z" fill="#B5BFC7"/>
<path d="M326.16 51.7783V65.9083H345V49.4233L326.16 51.7783Z" fill="#B5BFC7"/>
<path d="M326.16 68.2634V82.3934L345 84.7483V68.2634H326.16Z" fill="#B5BFC7"/>
<path d="M307.321 68.2634V80.0384L323.806 82.099V68.2634H307.321Z" fill="#B5BFC7"/>
<path d="M277.453 68.1917C277.407 63.7153 281.103 61.5731 281.267 61.4656C279.191 58.4326 275.961 58.0155 274.807 57.9694C272.061 57.6879 269.442 59.5869 268.045 59.5869C266.653 59.5869 264.497 58.0078 262.217 58.0487C259.217 58.0948 256.456 59.7943 254.91 62.4765C251.795 67.8821 254.111 75.8879 257.147 80.2774C258.631 82.4222 260.402 84.8306 262.724 84.7461C264.961 84.6565 265.805 83.2975 268.511 83.2975C271.216 83.2975 271.976 84.7461 274.341 84.7026C276.749 84.6565 278.272 82.5143 279.744 80.3644C281.449 77.8741 282.15 75.4605 282.193 75.3402C282.137 75.3095 277.502 73.5358 277.453 68.1917Z" fill="#B5BFC7"/>
<path d="M273.004 55.0643C274.235 53.5722 275.07 51.4939 274.842 49.4233C273.063 49.495 270.916 50.6032 269.639 52.0979C268.495 53.4212 267.499 55.5327 267.765 57.5623C269.746 57.7184 271.773 56.5539 273.004 55.0643Z" fill="#B5BFC7"/>
<path d="M153.97 179.644H110.096L112.009 156.99H152.057L153.97 179.644Z" fill="#D8D8D8" stroke="#163050" stroke-width="2.90671" stroke-linecap="round" stroke-linejoin="round"/>
<path d="M214.355 37.0044H59.4648C52.6528 37.0044 47.1306 42.5266 47.1306 49.3386V145.495C47.1306 152.307 52.6528 157.829 59.4648 157.829H214.355C221.167 157.829 226.689 152.307 226.689 145.495V49.3386C226.689 42.5266 221.167 37.0044 214.355 37.0044Z" fill="#78E1F2" stroke="#163050" stroke-width="2.90671" stroke-linecap="round" stroke-linejoin="round"/>
<path d="M226.689 137.691V145.495C226.689 148.766 225.39 151.903 223.077 154.216C220.764 156.529 217.626 157.829 214.355 157.829H59.4648C56.1935 157.829 53.0563 156.529 50.7432 154.216C48.4301 151.903 47.1306 148.766 47.1306 145.495V137.691H226.689Z" fill="#D8D8D8" stroke="#163050" stroke-width="2.90671" stroke-linecap="round" stroke-linejoin="round"/>
<path d="M136.91 152.795C139.691 152.795 141.945 150.541 141.945 147.76C141.945 144.98 139.691 142.726 136.91 142.726C134.13 142.726 131.876 144.98 131.876 147.76C131.876 150.541 134.13 152.795 136.91 152.795Z" fill="#2A455F"/>
<path d="M39.7314 12.1726L43.8847 16.326L39.7314 20.4793L43.8847 24.6326L39.7314 28.786L35.578 24.6326L31.4247 28.786L27.2714 24.6326L31.4247 20.4793L27.2714 16.326L31.4247 12.1726L35.578 16.326L39.7314 12.1726Z" fill="#FFD167"/>
<path d="M24.9066 148.618L31.196 154.646L15.6502 172.562L7.57273 164.778L24.9066 148.618ZM7.1534 141.672L11.1404 149.064L26.2737 139.82L23.1749 134.073L7.1534 141.672Z" fill="#007A99"/>
<g filter="url(#filter0_d_21234_106087)">
<path d="M136.91 125.945C157.3 125.945 173.829 109.416 173.829 89.0261C173.829 68.6365 157.3 52.1074 136.91 52.1074C116.521 52.1074 99.9918 68.6365 99.9918 89.0261C99.9918 109.416 116.521 125.945 136.91 125.945Z" fill="#007A99"/>
</g>
<path d="M143.999 92.2061C144.266 91.9377 144.584 91.7247 144.934 91.5794C145.284 91.4341 145.659 91.3593 146.038 91.3593C146.417 91.3593 146.792 91.4341 147.142 91.5794C147.492 91.7247 147.81 91.9377 148.077 92.2061C148.507 92.6362 148.849 93.147 149.082 93.7092C149.315 94.2714 149.435 94.8741 149.435 95.4826C149.435 96.0912 149.315 96.6938 149.082 97.256C148.849 97.8182 148.507 98.329 148.077 98.7592L139.846 107.007C139.416 107.438 138.905 107.779 138.343 108.012C137.78 108.245 137.178 108.365 136.569 108.365C135.961 108.365 135.358 108.245 134.796 108.012C134.234 107.779 133.723 107.438 133.293 107.007L125.045 98.7676C124.614 98.3374 124.273 97.8266 124.04 97.2644C123.807 96.7022 123.687 96.0996 123.687 95.491C123.687 94.8824 123.807 94.2798 124.04 93.7176C124.273 93.1554 124.614 92.6446 125.045 92.2145C125.312 91.9461 125.63 91.7331 125.98 91.5878C126.33 91.4425 126.705 91.3677 127.084 91.3677C127.462 91.3677 127.838 91.4425 128.188 91.5878C128.537 91.7331 128.855 91.9461 129.123 92.2145L133.318 96.4098C133.748 96.8403 134.259 97.1819 134.821 97.4149C135.383 97.6479 135.986 97.7679 136.594 97.7679C137.203 97.7679 137.806 97.6479 138.368 97.4149C138.93 97.1819 139.441 96.8403 139.871 96.4098L143.999 92.2061ZM156.803 79.251L148.933 71.389C148.087 70.5617 146.947 70.104 145.764 70.1166C144.581 70.1292 143.451 70.611 142.623 71.4562L136.557 77.531L130.591 71.5652C130.172 71.1543 129.676 70.83 129.132 70.611C128.587 70.3919 128.005 70.2824 127.418 70.2886C126.831 70.2948 126.251 70.4167 125.712 70.6473C125.172 70.8779 124.683 71.2126 124.273 71.6324L116.251 79.6622C115.407 80.4914 114.927 81.6217 114.916 82.8049C114.905 83.988 115.364 85.1271 116.193 85.9719C116.446 86.2258 116.746 86.4269 117.078 86.5637C117.409 86.7006 117.764 86.7703 118.122 86.769C118.494 86.7672 118.862 86.6922 119.204 86.5483C119.547 86.4043 119.858 86.1942 120.119 85.9299L124.172 81.8689C124.582 81.4492 125.071 81.1144 125.611 80.8838C126.151 80.6533 126.73 80.5314 127.317 80.5251C127.904 80.5189 128.486 80.6284 129.031 80.8475C129.575 81.0666 130.071 81.3908 130.49 81.8018L134.476 85.7789C134.903 86.2064 135.461 86.4782 136.062 86.5508H136.137H136.473C136.844 86.5491 137.212 86.4741 137.555 86.3301C137.897 86.1861 138.208 85.976 138.47 85.7118L142.531 81.6507C143.359 80.8056 144.489 80.3238 145.672 80.3112C146.855 80.2986 147.995 80.7563 148.84 81.5836L152.826 85.5607C153.347 86.0813 154.053 86.3738 154.789 86.3738C155.526 86.3738 156.232 86.0813 156.753 85.5607C157.176 85.1392 157.511 84.6383 157.74 84.0868C157.969 83.5354 158.087 82.9442 158.087 82.3471C158.087 81.7713 157.973 81.2011 157.751 80.6697C157.529 80.1382 157.204 79.656 156.795 79.251H156.803Z" fill="#F2F2F2"/>
<path d="M181.596 174.479H81.8174V179.801H181.596V174.479Z" fill="#D8D8D8" stroke="#163050" stroke-width="2.90671" stroke-linecap="round" stroke-linejoin="round"/>
<defs>
<filter id="filter0_d_21234_106087" x="95.518" y="49.8705" width="82.7849" height="82.785" filterUnits="userSpaceOnUse" color-interpolation-filters="sRGB">
<feFlood flood-opacity="0" result="BackgroundImageFix"/>
<feColorMatrix in="SourceAlpha" type="matrix" values="0 0 0 0 0 0 0 0 0 0 0 0 0 0 0 0 0 0 127 0" result="hardAlpha"/>
<feOffset dy="2.23692"/>
<feGaussianBlur stdDeviation="2.23692"/>
<feColorMatrix type="matrix" values="0 0 0 0 0 0 0 0 0 0 0 0 0 0 0 0 0 0 0.15 0"/>
<feBlend mode="normal" in2="BackgroundImageFix" result="effect1_dropShadow_21234_106087"/>
<feBlend mode="normal" in="SourceGraphic" in2="effect1_dropShadow_21234_106087" result="shape"/>
</filter>
</defs>
</svg>
