<svg width="291" height="227" viewBox="0 0 291 227" fill="none" xmlns="http://www.w3.org/2000/svg">
<circle cx="203" cy="88" r="88" fill="#1EB8E7" fill-opacity="0.26"/>
<path fill-rule="evenodd" clip-rule="evenodd" d="M187.949 183.74V140.364C187.906 130.607 179.985 122.721 170.229 122.721H150.082C140.325 122.763 132.438 130.684 132.438 140.441V154.54C132.46 164.312 140.387 172.222 150.159 172.222H172.193C179.517 171.822 186.108 176.64 187.949 183.74Z" fill="#0C9FE1" stroke="#163150" stroke-width="7.39623" stroke-linecap="round" stroke-linejoin="round"/>
<path fill-rule="evenodd" clip-rule="evenodd" d="M51.08 204.234H170.498V115.633C169.991 109.472 165.102 104.583 158.942 104.076H66.4888C58.7844 104.076 51.08 107.928 51.08 115.633V204.234Z" fill="#0C9FE1" stroke="#163150" stroke-width="7.39623" stroke-linecap="round" stroke-linejoin="round"/>
<path fill-rule="evenodd" clip-rule="evenodd" d="M52.4365 118.886C52.4365 118.886 54.1075 121.767 55.3047 122.965C58.2533 125.913 62.3271 127.452 66.4888 127.189H158.942C165.095 127.712 169.976 132.593 170.498 138.746V208.086C169.931 214.218 165.074 219.075 158.942 219.642H66.4888C58.1528 219.236 51.4864 212.569 51.08 204.233V119.755L52.4365 118.886Z" fill="#1EB8E7"/>
<path fill-rule="evenodd" clip-rule="evenodd" d="M51.08 116.057V116.057C51.08 122.184 56.0471 127.189 62.1743 127.189H158.942C165.095 127.712 169.976 132.593 170.498 138.746V208.086C169.931 214.218 165.074 219.075 158.942 219.642H66.4888C58.1528 219.236 51.4864 212.569 51.08 204.234V116.057Z" stroke="#163150" stroke-width="7.39623" stroke-linecap="round" stroke-linejoin="round"/>
<path fill-rule="evenodd" clip-rule="evenodd" d="M187.949 143.06V186.398C187.906 196.154 179.985 204.041 170.229 204.041H141.53C131.773 203.998 123.887 196.077 123.887 186.321V172.26C123.95 162.506 131.853 154.621 141.607 154.579H172.424C179.663 154.866 186.125 150.072 187.949 143.06Z" fill="#1EB8E7"/>
<path fill-rule="evenodd" clip-rule="evenodd" d="M169.421 174.202C184.382 183.033 171.049 205.683 156.018 196.817L144.416 191.934L155.706 166.998L169.421 174.202Z" fill="#0C9FE1"/>
<path d="M157.49 184.526C160.411 179.751 158.908 173.514 154.134 170.593C149.36 167.672 143.122 169.175 140.202 173.949C137.281 178.723 138.783 184.961 143.558 187.882C148.332 190.802 154.57 189.3 157.49 184.526Z" fill="#B3C1D6" stroke="#163150" stroke-width="7.39623" stroke-linecap="round" stroke-linejoin="round"/>
<path fill-rule="evenodd" clip-rule="evenodd" d="M187.949 143.06V186.398C187.906 196.154 179.985 204.041 170.229 204.041H141.53C131.773 203.998 123.887 196.077 123.887 186.321V172.26C123.95 162.506 131.853 154.621 141.607 154.579H172.424C179.663 154.866 186.125 150.072 187.949 143.06Z" stroke="#163150" stroke-width="7.39623" stroke-linecap="round" stroke-linejoin="round"/>
<path fill-rule="evenodd" clip-rule="evenodd" d="M74.1932 113.013V76.9183C74.1932 55.6431 91.4401 38.3962 112.715 38.3962C133.99 38.3962 151.237 55.6431 151.237 76.9183V89.7461C151.237 91.1714 146.923 92.3656 141.607 92.3656C136.291 92.3656 131.976 91.1714 131.976 89.7461V76.9183C131.976 66.2807 123.353 57.6572 112.715 57.6572C102.078 57.6572 93.4542 66.2807 93.4542 76.9183V112.859C93.4542 114.285 89.1398 115.479 83.8237 115.479C78.5077 115.633 74.1932 114.439 74.1932 113.013Z" fill="#E3EDFF"/>
<path fill-rule="evenodd" clip-rule="evenodd" d="M74.1932 113.013V76.9183C74.1932 55.6431 91.4401 38.3962 112.715 38.3962C133.99 38.3962 151.237 55.6431 151.237 76.9183V89.7461C151.237 91.1714 146.923 92.3656 141.607 92.3656C136.291 92.3656 131.976 91.1714 131.976 89.7461V76.9183C131.976 66.2807 123.353 57.6572 112.715 57.6572C102.078 57.6572 93.4542 66.2807 93.4542 76.9183V112.859C93.4542 114.285 89.1398 115.479 83.8237 115.479C78.5077 115.633 74.1932 114.439 74.1932 113.013Z" stroke="#163150" stroke-width="7.39623" stroke-linecap="round" stroke-linejoin="round"/>
<path d="M142.377 117.211C147.27 117.211 151.237 116.694 151.237 116.057C151.237 115.419 147.27 114.902 142.377 114.902C137.483 114.902 133.516 115.419 133.516 116.057C133.516 116.694 137.483 117.211 142.377 117.211Z" fill="#B3C1D6" stroke="#163150" stroke-width="7.39623" stroke-linecap="round" stroke-linejoin="round"/>
<path d="M72.1896 169.564C66.5611 153.644 50.2821 144.094 33.6398 146.95C16.9976 149.805 4.83276 164.235 4.83276 181.12C4.83276 198.006 16.9976 212.435 33.6398 215.291C50.2821 218.146 66.5611 208.597 72.1896 192.677H82.552L89.6015 185.589L96.6511 192.677H108.863V169.564H72.1896ZM39.5229 196.529C19.1063 196.529 19.1448 165.712 39.5229 165.712V196.529Z" fill="#FFD166" stroke="#163150" stroke-width="7.39623" stroke-linecap="round" stroke-linejoin="round"/>
<path fill-rule="evenodd" clip-rule="evenodd" d="M108.863 158.007V204.233V158.007Z" fill="#E3EDFF"/>
<path d="M108.863 158.007V204.233" stroke="#163150" stroke-width="7.39623" stroke-linecap="round" stroke-linejoin="round"/>
</svg>
