<svg width="32" height="32" viewBox="0 0 32 32" fill="none" xmlns="http://www.w3.org/2000/svg">
<path d="M16 32C24.8366 32 32 24.8366 32 16C32 7.16344 24.8366 0 16 0C7.16344 0 0 7.16344 0 16C0 24.8366 7.16344 32 16 32Z" fill="#067997"/>
<path d="M20.7648 17.8249C20.6186 17.8247 20.4737 17.8538 20.3389 17.9105C20.2041 17.9671 20.082 18.0503 19.9798 18.1549L17.8948 20.2649C17.6506 20.5128 17.3595 20.7097 17.0384 20.8441C16.7174 20.9785 16.3728 21.0477 16.0248 21.0477C15.6768 21.0477 15.3322 20.9785 15.0112 20.8441C14.6902 20.7097 14.3991 20.5128 14.1548 20.2649L12.0748 18.1499C11.9726 18.0453 11.8505 17.9622 11.7157 17.9055C11.5809 17.8488 11.4361 17.8197 11.2898 17.8199C11.1427 17.819 10.997 17.8478 10.8612 17.9045C10.7255 17.9612 10.6026 18.0447 10.4998 18.1499C10.1266 18.5303 9.9176 19.042 9.9176 19.5749C9.9176 20.1078 10.1266 20.6195 10.4998 20.9999L14.6148 25.1699C14.797 25.3567 15.0147 25.5051 15.2552 25.6065C15.4956 25.7078 15.7539 25.76 16.0148 25.7599C16.2757 25.76 16.534 25.7078 16.7745 25.6065C17.0149 25.5051 17.2326 25.3567 17.4148 25.1699L21.5448 20.9999C21.918 20.6195 22.127 20.1078 22.127 19.5749C22.127 19.042 21.918 18.5303 21.5448 18.1499C21.4428 18.0468 21.3213 17.9649 21.1874 17.9091C21.0535 17.8533 20.9099 17.8247 20.7648 17.8249Z" fill="white"/>
<path d="M25.915 11.6099L21.985 7.60994C21.8135 7.43519 21.6089 7.2965 21.383 7.20204C21.1572 7.10759 20.9148 7.05927 20.67 7.05994C20.4145 7.06034 20.1616 7.11186 19.9263 7.21147C19.691 7.31108 19.4781 7.45676 19.3 7.63994L16.03 10.9449L12.82 7.68994C12.6459 7.5191 12.4395 7.38467 12.2128 7.29453C11.9862 7.20438 11.7438 7.16033 11.5 7.16494C11.2445 7.16534 10.9916 7.21686 10.7563 7.31647C10.521 7.41608 10.3081 7.56176 10.13 7.74494L6.12996 11.7999C5.76863 12.1605 5.5631 12.6484 5.55749 13.1588C5.55188 13.6692 5.74664 14.1615 6.09996 14.5299C6.30006 14.7266 6.5694 14.8368 6.84996 14.8368C7.13052 14.8368 7.39986 14.7266 7.59996 14.5299L9.62996 12.4799C9.86945 12.2345 10.1556 12.0396 10.4716 11.9065C10.7876 11.7734 11.1271 11.7048 11.47 11.7049C11.8012 11.705 12.1292 11.7709 12.4347 11.8988C12.7403 12.0267 13.0174 12.214 13.25 12.4499L15.25 14.4499C15.4005 14.6045 15.5969 14.7062 15.81 14.7399C15.9838 14.7737 16.1634 14.764 16.3326 14.7117C16.5018 14.6593 16.6555 14.566 16.78 14.4399L18.81 12.3899C19.0494 12.1445 19.3356 11.9496 19.6516 11.8165C19.9676 11.6834 20.3071 11.6148 20.65 11.6149C20.9812 11.615 21.3092 11.6809 21.6147 11.8088C21.9203 11.9367 22.1974 12.124 22.43 12.3599L24.43 14.3599C24.5245 14.4578 24.638 14.5353 24.7635 14.5877C24.889 14.6401 25.0239 14.6664 25.16 14.6649C25.3027 14.6645 25.4439 14.6356 25.5753 14.5798C25.7067 14.5239 25.8256 14.4424 25.925 14.3399C26.2809 13.9741 26.4793 13.4833 26.4774 12.9729C26.4755 12.4625 26.2736 11.9731 25.915 11.6099Z" fill="white"/>
</svg>
