<svg width="74" height="78" viewBox="0 0 74 78" fill="none" xmlns="http://www.w3.org/2000/svg">
<path fill-rule="evenodd" clip-rule="evenodd" d="M72.5299 51.2777V33.099C72.5209 29.0002 69.1904 25.6821 65.085 25.6821H56.6205C54.6503 25.6864 52.7625 26.4719 51.3724 27.8659C49.9823 29.2599 49.2037 31.1481 49.208 33.1152V39.0132C49.2169 43.112 52.5475 46.4301 56.6529 46.4301H65.9104C68.9922 46.2641 71.7628 48.2931 72.5299 51.2777Z" fill="#0C9FE1" stroke="#163150" stroke-width="2.61933" stroke-linecap="round" stroke-linejoin="round"/>
<path fill-rule="evenodd" clip-rule="evenodd" d="M9.68544 61.1845V21.9023C9.68544 19.5593 11.6276 17.41 15.0101 17.41H60.7799C61.9131 17.4016 63.0033 17.8428 63.8107 18.6367C64.6181 19.4307 65.0764 20.5124 65.085 21.6438L65.2148 51.5215C65.2417 53.9036 63.3434 55.8637 60.9579 55.9167H14.7188C13.3466 55.9332 12.0389 56.5015 11.0917 57.4929C10.1444 58.4843 9.63741 59.8151 9.68544 61.1845Z" fill="#0C9FE1" stroke="#163150" stroke-width="2.61933" stroke-linecap="round" stroke-linejoin="round"/>
<path fill-rule="evenodd" clip-rule="evenodd" d="M35.4356 17.4905C30.2404 16.1655 26.8416 15.1798 24.6082 13.0791C22.3747 10.9785 21.1447 7.3589 19.7528 1.76794C18.2315 7.74672 16.9529 11.4632 14.1854 13.7901C11.9843 15.5838 8.81211 16.2463 4.05386 17.4582C14.8004 20.189 17.0015 22.4028 19.7528 33.1323C22.4718 22.4351 24.6891 20.2213 35.4356 17.4905Z" fill="#FFD166" stroke="#163150" stroke-width="2.61933" stroke-linecap="square" stroke-linejoin="round"/>
<path fill-rule="evenodd" clip-rule="evenodd" d="M65.2146 32.0025L65.085 61.8641C65.0672 64.2227 63.1423 66.1228 60.7799 66.1139L16.1592 65.92H13.7639C11.4079 65.9022 9.50742 63.9902 9.50742 61.6379L9.68545 22.3557C9.64161 23.7292 10.1576 25.0616 11.1155 26.0484C12.0733 27.0352 13.3911 27.5919 14.7674 27.5912H15.8194L61.0227 27.7043C63.3634 27.7485 65.2326 29.6652 65.2146 32.0025Z" fill="#1EB8E7"/>
<path fill-rule="evenodd" clip-rule="evenodd" d="M18.328 27.5912L17.9072 65.9038C15.172 65.9038 9.63693 66.7764 9.63693 61.6217V22.3557C9.68549 27.7689 16.1593 27.5912 18.328 27.5912Z" fill="#0C9FE1"/>
<path fill-rule="evenodd" clip-rule="evenodd" d="M9.68475 22.3405L9.55528 60.847C9.45167 62.3051 9.99963 63.7344 11.052 64.7507C12.1043 65.7671 13.5532 66.2665 15.0095 66.1148H60.7792C63.1416 66.1237 65.0665 64.2236 65.0843 61.865L65.2139 31.9873C65.2321 29.6115 63.3363 27.6612 60.9573 27.6082H14.7181C13.3459 27.5917 12.0383 27.0234 11.091 26.032C10.1437 25.0406 9.63673 23.7098 9.68475 22.3405Z" stroke="#163150" stroke-width="2.61933" stroke-linecap="round" stroke-linejoin="round"/>
<path fill-rule="evenodd" clip-rule="evenodd" d="M72.5295 34.231V52.4097C72.5028 56.4959 69.1774 59.7942 65.0846 59.7942H53.0271C48.9355 59.7589 45.6322 56.4465 45.6146 52.3612V46.4632C45.6413 42.3743 48.9641 39.0712 53.0595 39.0625H66.0071C69.0485 39.1831 71.7633 37.1721 72.5295 34.231Z" fill="#1EB8E7"/>
<path fill-rule="evenodd" clip-rule="evenodd" d="M65.2149 46.8675C72.2066 51.0042 65.9756 61.5721 58.9515 57.4354L53.5297 55.1408L58.8059 43.6357L65.2149 46.8675Z" fill="#0C9FE1"/>
<path d="M59.7515 51.6556C60.9794 49.6534 60.3483 47.0377 58.3418 45.8133C56.3353 44.5889 53.7132 45.2194 52.4853 47.2215C51.2573 49.2237 51.8884 51.8394 53.895 53.0638C55.9015 54.2882 58.5235 53.6577 59.7515 51.6556Z" fill="#B3C1D6" stroke="#163150" stroke-width="2.61933" stroke-linecap="round" stroke-linejoin="round"/>
<path fill-rule="evenodd" clip-rule="evenodd" d="M72.5295 34.231V52.4097C72.5028 56.4959 69.1774 59.7942 65.0846 59.7942H53.0271C48.9355 59.7589 45.6322 56.4465 45.6146 52.3612V46.4632C45.6413 42.3743 48.9641 39.0712 53.0595 39.0625H66.0071C69.0485 39.1831 71.7633 37.1721 72.5295 34.231Z" stroke="#163150" stroke-width="2.61933" stroke-linecap="round" stroke-linejoin="round"/>
<path fill-rule="evenodd" clip-rule="evenodd" d="M50.5024 65.9529C43.365 64.1431 41.8922 62.7212 40.0634 55.5466C39.1894 58.9723 38.5258 61.4931 37.1501 62.9797C35.7745 64.4663 33.3306 65.0157 29.6405 65.9529C36.7779 67.7789 38.2507 69.1847 40.0634 76.3754C40.9211 73.0305 41.5523 70.5743 42.8795 69.1039C44.2066 67.6334 46.7152 66.9225 50.5024 65.9529Z" fill="#FFD166" stroke="#163150" stroke-width="2.61933" stroke-linecap="square" stroke-linejoin="round"/>
<path d="M34.9817 46.11H22.3254M28.6536 39.7919V52.4281V39.7919Z" stroke="#E3EDFF" stroke-width="2.61933" stroke-linecap="round" stroke-linejoin="round"/>
<path opacity="0.4" d="M2.30565 49.8585L2.33802 42.6516M12.0325 72.9818C6.46454 72.0828 2.36009 67.3018 2.32183 61.6706V57.9864" stroke="#B5BFC7" stroke-width="2.61933" stroke-linecap="round" stroke-linejoin="round"/>
<path opacity="0.4" d="M44.8541 10.1681H49.5962M56.6203 10.1681H60.8121C67.1636 10.177 72.3103 15.3156 72.3192 21.657" stroke="#B5BFC7" stroke-width="2.61933" stroke-linecap="round" stroke-linejoin="round"/>
</svg>
