<svg width="32" height="32" viewBox="0 0 32 32" fill="none" xmlns="http://www.w3.org/2000/svg">
<circle cx="16" cy="16" r="16" fill="#22699D"/>
<circle cx="16" cy="16" r="16" fill="#22699D"/>
<path d="M14.3082 14.8129L11.73 12.2347C11.5549 12.0597 11.4565 11.8222 11.4565 11.5745V9.93595C11.4565 9.31689 11.7024 8.72319 12.1402 8.28544L15.741 4.68458C16.1057 4.31996 16.6968 4.31996 17.0615 4.68458L19.7095 7.33263C20.0741 7.69725 20.0741 8.28841 19.7095 8.65303L17 11.3625C16.6693 11.6932 16.6693 12.2294 17 12.5601C17.3307 12.8908 17.8669 12.8908 18.1976 12.5601L19.5728 11.1849C19.8669 10.8908 20.3697 11.0991 20.3697 11.515V19.2334C20.3697 19.8524 20.1238 20.4461 19.686 20.8839L17.5316 23.0383C17.3565 23.2134 17.2582 23.4509 17.2582 23.6985V24.8311C17.2582 25.3263 17.0614 25.8013 16.7112 26.1515L15.7705 27.0922C15.3294 27.5334 14.5751 27.2209 14.5751 26.5971V22.6028C14.5751 22.3551 14.4767 22.1177 14.3016 21.9426L12.1402 19.7811C11.7024 19.3434 11.4565 18.7497 11.4565 18.1306V15.5045C11.4565 15.0886 11.9594 14.8803 12.2535 15.1744L13.1001 16.021C13.4337 16.3546 13.9746 16.3546 14.3082 16.021C14.6418 15.6874 14.6418 15.1465 14.3082 14.8129Z" fill="white"/>
</svg>
