<svg width="319" height="294" viewBox="0 0 319 294" fill="none" xmlns="http://www.w3.org/2000/svg">
<path d="M66.1377 214.43C2.28442 220.136 -17.6157 175.356 16.474 136.454C40.008 109.828 90.1908 58.4777 139.508 18.5387C164.773 -1.86307 186.576 -6.18548 230.01 9.37518C303.035 35.4825 316.013 52.2535 309.438 92.5383C303.208 130.575 286.769 147.865 257.351 161.524C200.42 187.977 136.74 208.033 66.1377 214.43Z" fill="#C6F0FF"/>
<path opacity="0.1" d="M92.2673 245.726C14.5705 261.287 38.9697 293.791 61.4654 293.791C81.5385 293.791 102.304 272.525 150.41 272.525C169.791 272.525 181.212 276.329 199.382 276.329C214.956 276.329 226.03 262.324 226.03 255.236C226.03 238.465 197.132 227.399 171.175 227.399C142.104 227.399 132.933 236.217 121.166 239.675C111.821 242.441 101.958 243.652 92.2673 245.726Z" fill="#163050"/>
<path d="M5.05139 80.4395C23.221 114.846 34.1228 169.481 32.9115 216.509C32.3924 235.182 40.3722 234.053 69.5305 234.053C97.5637 228.002 184.48 204.962 209.571 205.654C205.764 92.7524 212.531 65.2246 212.531 55.1966C212.531 45.1686 203.879 35.6593 176.711 40.6733C149.543 45.6873 119.261 45.3415 43.4672 70.9302C22.875 77.6731 14.7419 79.0563 5.05139 80.4395Z" fill="#02BAEC"/>
<path d="M99.1895 249.875C49.8719 259.038 79.2894 278.403 102.131 261.632C109.053 256.618 116.494 246.59 99.1895 249.875Z" fill="white"/>
<path d="M4.01457 77.498C-3.25328 59.3439 139.335 30.6431 145.046 29.4328C151.967 27.8768 155.774 29.9515 158.197 34.101C166.33 31.6805 172.559 41.7085 172.559 41.7085C63.1956 54.3299 8.85981 89.255 4.01457 77.498Z" fill="#009BE2"/>
<path d="M149.198 242.094C152.14 237.772 194.19 244.342 184.845 252.641C175.501 261.113 143.142 251.085 149.198 242.094Z" fill="white"/>
<path d="M221.323 56.7996C193.343 93.0933 182.151 209.571 182.151 209.571L216.744 204.676L221.323 56.7996Z" fill="#009ADB"/>
<path d="M95.0355 231.722C95.3816 240.367 96.0738 248.147 96.2469 250.914C96.5929 253.68 103.342 262.671 104.899 250.741C106.456 238.811 107.841 227.745 107.841 227.745L95.0355 231.722Z" fill="#FFD167"/>
<path d="M144.937 219.886C144.937 219.886 151.45 239.551 152.506 242.562C153.562 245.574 160.779 246.283 160.603 240.259C160.427 234.236 158.138 217.405 158.138 217.405L144.937 219.886Z" fill="#FFD167"/>
<path d="M103.515 117.611C103.515 105.162 83.2686 108.101 83.2686 120.55C83.2686 132.999 103.515 130.232 103.515 117.611Z" fill="#163050"/>
<path d="M152.486 105.679C152.486 93.2308 132.24 96.17 132.24 108.619C132.24 121.24 152.486 118.301 152.486 105.679Z" fill="#163050"/>
<path d="M95.9007 251.432C90.1902 253.679 81.538 256.1 76.3467 258.002C66.8293 261.633 75.4815 273.735 92.9589 266.474C113.032 258.175 113.032 250.74 105.764 249.703" stroke="#163050" stroke-width="4.03322" stroke-miterlimit="10" stroke-linecap="round" stroke-linejoin="round"/>
<path d="M161.139 240.194C166.503 241.75 174.29 242.96 180.866 245.035C191.941 248.493 184.327 260.768 165.119 254.89C159.408 253.161 155.428 252.469 151.448 249.011C148.853 246.764 147.295 241.577 151.794 239.848" stroke="#163050" stroke-width="4.03322" stroke-miterlimit="10" stroke-linecap="round" stroke-linejoin="round"/>
<path d="M95.3817 231.893C95.3817 233.622 96.0738 250.22 96.4199 251.949C97.1121 257.309 105.418 256.791 105.418 251.258C106.803 235.87 106.63 233.277 109.052 228.263" stroke="#163050" stroke-width="4.03322" stroke-miterlimit="10" stroke-linecap="round" stroke-linejoin="round"/>
<path d="M145.916 218.385L153.179 243.304C153.871 247.281 161.658 245.897 160.966 241.921L158.647 215.447" stroke="#163050" stroke-width="4.03322" stroke-miterlimit="10" stroke-linecap="round" stroke-linejoin="round"/>
<path d="M214.468 204.674C145.596 214.184 32.7392 253.681 32.3931 223.943C32.047 185.733 28.7592 129.023 4.18689 78.0182" stroke="#163050" stroke-width="4.03322" stroke-miterlimit="10" stroke-linecap="round" stroke-linejoin="round"/>
<path d="M212.533 55.543C212.186 45.6879 203.707 38.0805 193.844 38.9449C77.2121 48.2813 17.1658 86.3185 4.53357 78.1924C-2.90733 73.3513 37.0658 48.1084 147.468 29.2627C151.794 28.5712 155.774 30.1272 158.37 33.2394" stroke="#163050" stroke-width="4.03322" stroke-miterlimit="10" stroke-linecap="round" stroke-linejoin="round"/>
<path d="M86.9027 159.97C98.3236 171.381 126.011 169.479 126.011 169.479" stroke="#163050" stroke-width="4.03322" stroke-miterlimit="10" stroke-linecap="round" stroke-linejoin="round"/>
<path d="M83.7874 163.773C83.7874 163.773 85.6909 158.241 89.6709 155.993" stroke="#163050" stroke-width="4.03322" stroke-miterlimit="10" stroke-linecap="round" stroke-linejoin="round"/>
<path d="M105.937 176.05C109.917 177.087 112.34 177.087 112.34 177.087" stroke="#163050" stroke-width="4.03322" stroke-miterlimit="10" stroke-linecap="round" stroke-linejoin="round"/>
<path d="M102.476 116.573C103.342 128.502 84.6528 133.171 83.2685 121.241C82.0572 108.965 101.611 104.297 102.476 116.573Z" stroke="#163050" stroke-width="4.03322" stroke-miterlimit="10" stroke-linecap="round" stroke-linejoin="round"/>
<path d="M151.621 104.988C152.486 116.918 133.797 121.586 132.413 109.657C131.202 97.5539 150.756 92.8857 151.621 104.988Z" stroke="#163050" stroke-width="4.03322" stroke-miterlimit="10" stroke-linecap="round" stroke-linejoin="round"/>
<path d="M172.213 40.8451C170.483 36.1769 165.638 33.2377 160.619 33.9292C103.688 41.018 47.7946 59.345 20.7997 70.4104C18.5501 71.2748 17.1658 73.6954 18.5501 77.3262" stroke="#163050" stroke-width="4.03322" stroke-miterlimit="10" stroke-linecap="round" stroke-linejoin="round"/>
<path d="M24.78 104.814C30.1444 122.277 34.6435 141.987 34.6435 141.987" stroke="white" stroke-width="4.03322" stroke-miterlimit="10" stroke-linecap="round" stroke-linejoin="round"/>
<path d="M18.8966 88.2177C19.5882 89.9466 20.2798 91.8485 21.1443 93.7503" stroke="white" stroke-width="4.03322" stroke-miterlimit="10" stroke-linecap="round" stroke-linejoin="round"/>
<path d="M100.4 115.532C100.4 122.275 89.3256 122.275 89.3256 115.532C89.3256 108.962 100.4 108.962 100.4 115.532Z" fill="white"/>
<path d="M100.746 114.497C101.266 121.758 90.0178 124.525 89.3256 117.263C88.4604 110.001 100.227 107.235 100.746 114.497Z" stroke="#163050" stroke-width="4.03322" stroke-miterlimit="10" stroke-linecap="round" stroke-linejoin="round"/>
<path d="M149.718 103.431C149.718 110.174 138.643 110.174 138.643 103.431C138.643 96.8612 149.718 96.8612 149.718 103.431Z" fill="white"/>
<path d="M150.237 102.393C150.756 109.655 139.508 112.421 138.816 105.159C137.951 97.8977 149.545 95.1314 150.237 102.393Z" stroke="#163050" stroke-width="4.03322" stroke-miterlimit="10" stroke-linecap="round" stroke-linejoin="round"/>
<path d="M182.639 65.2237V97.8113C182.639 151.49 199.647 189.34 247.029 215.162C300.983 185.846 311.419 150.738 311.419 98.0324V65.2237C277.98 59.6967 253.69 50.5881 247.34 47.0065H247.029L246.451 47.2718C229.799 55.5845 201.512 62.1286 182.639 65.2237Z" fill="#A682FF"/>
<path fill-rule="evenodd" clip-rule="evenodd" d="M182.639 65.2215V97.8091C182.639 151.134 199.336 189.116 247.029 215.115C299.34 186.684 311.419 153.212 311.419 98.0301V65.2215C289.14 61.6852 267.342 55.6174 246.451 47.1369C229.799 55.5823 201.512 62.1263 182.639 65.2215Z" stroke="#163150" stroke-width="3.91722" stroke-linecap="round" stroke-linejoin="round"/>
<path opacity="0.2" d="M182.906 114.569C182.906 116.338 182.906 118.107 183.261 119.964C183.483 122.882 183.749 125.889 184.193 128.807C184.193 130.443 184.682 132.079 184.948 133.804C185.259 135.44 185.57 137.12 185.925 138.8C186.281 140.48 186.636 141.984 187.035 143.576V144.018C187.924 147.378 188.989 150.827 190.233 154.232L191.032 156.31C191.654 157.99 192.364 159.67 193.119 161.395C193.874 163.119 194.673 164.755 195.562 166.435C197.353 169.89 199.34 173.242 201.512 176.473L203.866 179.745C205.065 181.336 206.308 182.928 207.64 184.564L209.683 186.952C212.582 190.206 215.666 193.291 218.92 196.193C220.207 197.343 221.495 198.448 222.872 199.509C224.248 200.571 225.625 201.72 227.312 202.781C230.199 204.948 233.307 207.203 236.593 209.06C238.237 210.077 239.924 211.094 241.656 212.067C243.388 213.04 245.208 214.057 247.073 215.029L250.004 213.482C251.337 212.863 252.624 212.111 253.868 211.448C256.295 210.092 258.649 208.706 260.928 207.292L262.349 206.363L265.014 204.771L265.991 204.152L267.634 202.958L268.256 202.516L270.698 200.703L273.096 198.846L273.584 198.448L273.895 197.962L276.027 196.149L278.647 193.85C280.068 192.523 281.444 191.241 282.688 189.914C285.078 187.566 287.317 185.07 289.393 182.442L291.658 179.922C293.479 177.49 295.122 175.058 296.632 172.582C297.209 171.609 297.83 170.592 298.363 169.575C299.34 167.836 300.228 166.111 301.028 164.401C302.751 161.016 304.235 157.514 305.468 153.922C306.5 150.903 307.374 147.834 308.088 144.725C308.799 141.777 309.376 138.741 309.82 135.617C309.82 134.246 310.264 132.831 310.398 131.195C310.531 129.559 310.664 128.984 310.753 127.923C311.064 124.872 311.241 121.909 311.375 119.08C311.375 116.957 311.375 114.658 311.375 112.801C311.375 109.529 311.375 106.345 311.375 103.338C301.019 88.6549 285.668 78.2079 268.167 73.9345C235.546 65.495 201.232 79.3955 183.794 108.114L185.526 112.536L182.906 114.569Z" fill="#003C77"/>
<path d="M205.464 168.337C214.625 177.463 227.054 182.591 240.013 182.591C252.972 182.591 265.4 177.463 274.561 168.337C276.421 166.471 278.129 164.46 279.668 162.323C293.61 142.974 291.431 116.418 274.519 99.578C257.607 82.7385 230.937 80.5686 211.503 94.451C209.358 95.9837 207.338 97.684 205.464 99.5359C196.298 108.658 191.149 121.033 191.149 133.936C191.149 146.84 196.298 159.215 205.464 168.337Z" fill="#E3EDFF" stroke="#163150" stroke-width="3.91722" stroke-linecap="round" stroke-linejoin="round"/>
<path opacity="0.2" d="M205.464 168.337C214.625 177.463 227.053 182.591 240.013 182.591C252.972 182.591 265.4 177.463 274.561 168.337C276.421 166.471 278.129 164.46 279.668 162.323C281.567 143.807 274.998 125.423 261.781 112.262C248.563 99.1005 230.099 92.5599 211.503 94.451C209.358 95.9836 207.338 97.6839 205.464 99.5359C196.298 108.658 191.149 121.033 191.149 133.936C191.149 146.84 196.298 159.215 205.464 168.337Z" fill="#003C77"/>
<path d="M183.321 190.496C164.286 171.46 164.286 140.598 183.321 121.563C202.356 102.527 233.219 102.527 252.254 121.563C271.289 140.598 271.289 171.46 252.254 190.496C233.219 209.531 202.356 209.531 183.321 190.496Z" fill="url(#paint0_radial_21234_106820)" stroke="#163150" stroke-width="3.91722" stroke-linecap="round" stroke-linejoin="round"/>
<path d="M250.626 158.432C251.767 146.397 246.03 134.742 235.779 128.267C225.527 121.791 212.493 121.59 202.045 127.746L218.342 154.276L187.257 147.909C184.454 159.592 188.436 171.856 197.578 179.694C206.719 187.532 219.491 189.632 230.678 185.137C241.866 180.642 249.596 170.304 250.715 158.344L250.626 158.432Z" fill="#FFC835" stroke="#FFAE25" stroke-width="7.28272" stroke-linecap="round" stroke-linejoin="round"/>
<path d="M311.03 124.873C309.3 136.284 308.435 138.877 308.435 138.877C317.952 133.863 316.222 126.947 311.03 124.873Z" fill="#009BE2"/>
<path opacity="0.1" d="M310.512 128.577C291.65 143.1 259.637 171.282 270.538 207.591C277.979 232.315 304.974 208.455 304.974 208.455C304.974 208.455 306.532 153.301 310.512 128.577Z" fill="#163050"/>
<path d="M315.183 134.11C306.877 139.989 306.358 139.124 298.744 140.508C291.303 141.891 275.729 157.106 278.498 183.213C281.266 209.32 302.205 202.577 306.012 200.157C315.01 194.624 316.741 186.325 315.183 134.11Z" fill="#02BAEC"/>
<path d="M310.339 170.418C310.339 150.708 289.4 155.549 289.4 175.259C289.573 195.143 310.339 190.301 310.339 170.418Z" fill="#FFD167"/>
<path d="M312.069 123.392C315.184 127.715 318.645 136.878 302.898 139.99C272.788 146.042 269.673 200.158 293.726 202.406C313.453 204.135 314.492 187.364 314.838 182.696C317.087 154.341 315.53 133.593 314.665 129.962" stroke="#163050" stroke-width="4.03322" stroke-miterlimit="10" stroke-linecap="round" stroke-linejoin="round"/>
<path d="M309.992 171.11C309.992 151.919 289.399 154.858 289.399 174.223C289.399 193.587 309.992 190.475 309.992 171.11Z" stroke="#163050" stroke-width="4.03322" stroke-miterlimit="10" stroke-linecap="round" stroke-linejoin="round"/>
<path d="M25.1493 150.813C15.0537 157.696 5.87585 169.627 5.87585 187.983C5.87585 225.153 56.813 259.57 71.9564 233.413C77.922 222.859 66.9086 208.174 56.813 207.715C42.5873 206.798 36.6217 217.811 36.6217 217.811C14.5948 205.421 9.54699 175.593 25.6082 160.908L25.1493 150.813Z" fill="white" stroke="#153150" stroke-width="3.91722" stroke-linecap="round" stroke-linejoin="round"/>
<defs>
<radialGradient id="paint0_radial_21234_106820" cx="0" cy="0" r="1" gradientUnits="userSpaceOnUse" gradientTransform="translate(221.321 117.665) rotate(-135) scale(39.7871)">
<stop offset="0.06" stop-color="#FFEA80"/>
<stop offset="0.11" stop-color="#FFE77D"/>
<stop offset="0.47" stop-color="#FFD76C"/>
<stop offset="0.73" stop-color="#FFD166"/>
</radialGradient>
</defs>
</svg>
