<svg width="261" height="304" viewBox="0 0 261 304" fill="none" xmlns="http://www.w3.org/2000/svg">
<path d="M166.462 248.195C152.714 246.305 139.059 238.317 135.418 250.259C135.13 255.745 136.464 261.562 156.935 266.046C177.405 270.53 188.95 270.25 190.204 261.423C191.459 252.597 180.211 250.084 166.462 248.195Z" fill="white" stroke="#153150" stroke-width="6.04275" stroke-linecap="round" stroke-linejoin="round"/>
<path d="M152.257 247.801C151.914 231.229 155.429 208.839 157.229 199.716L139.804 201.605C139.535 218.33 142.146 240.715 143.486 249.817C144.978 254.465 152.349 252.215 152.257 247.801Z" fill="#FFD168" stroke="#153150" stroke-width="6.04275" stroke-linecap="round" stroke-linejoin="round"/>
<path d="M96.3532 264.506C84.6653 269.755 64.63 276.093 57.5525 261.568C54.6962 252.538 66.2227 251.686 80.6892 248.352C95.1557 245.018 110.958 240.019 114.972 246.821C118.986 253.622 108.041 259.257 96.3532 264.506Z" fill="white" stroke="#153150" stroke-width="6.04275" stroke-linecap="round" stroke-linejoin="round"/>
<path d="M98.3201 246.564C99.052 230.005 96.0634 207.539 94.4776 198.376L111.853 200.673C111.731 217.399 108.594 239.718 107.042 248.786C106.016 252.172 98.0977 251.601 98.3201 246.564Z" fill="#FFD168" stroke="#153150" stroke-width="6.04275" stroke-linecap="round" stroke-linejoin="round"/>
<path d="M7.68948 21.5072C7.68948 12.0686 14.7684 5.46157 24.679 4.98964C58.6579 2.62999 179.944 4.98964 228.081 6.87735C237.047 7.34928 245.07 13.9563 245.07 24.8107C245.07 33.3054 245.07 58.3177 245.07 58.3177V57.8458V91.805C245.07 104.059 235.124 113.986 222.87 113.962L28.0172 113.578C15.5751 113.554 5.59245 103.292 5.91137 90.8535L7.68948 21.5072Z" fill="#0DBAEC" stroke="#153150" stroke-width="6.04275" stroke-linecap="round" stroke-linejoin="round"/>
<path opacity="0.2" d="M23.2632 29.5289C23.2632 29.5289 167.202 29.5289 229.497 29.057C237.519 29.5289 244.126 32.3605 244.126 49.3499C244.126 49.3499 243.182 39.9113 220.058 40.3833C196.461 40.8552 25.1509 38.4956 25.1509 38.4956C2.97025 34.2482 4.85797 16.7868 27.0387 21.978C22.3194 27.6412 23.2632 29.5289 23.2632 29.5289Z" fill="#153150"/>
<path d="M244.598 112.117C254.98 114.949 257.34 100.319 257.34 83.3297C257.34 74.363 252.149 66.8121 244.598 62.5648V112.117Z" fill="#0D88CA" stroke="#153150" stroke-width="6.04275" stroke-linecap="round" stroke-linejoin="round"/>
<path d="M228.08 210.279C155.403 215.47 96.4121 214.055 24.6788 208.863C14.2963 207.92 8.63315 199.897 8.16122 191.874C3.44192 139.962 2.02613 81.9143 7.68929 20.5635C7.68929 31.8898 16.184 38.0249 24.6788 38.0249C94.0524 41.3284 161.066 41.8003 228.08 40.3845C232.8 40.3845 237.047 42.2722 239.879 45.5758C242.688 48.8527 244.568 53.0586 244.598 57.2718C244.598 57.3399 244.598 57.3417 244.598 57.4097C244.618 59.5826 245.532 160.15 244.598 193.762C244.598 202.728 237.991 209.807 228.08 210.279Z" fill="#0DBAEC" stroke="#153150" stroke-width="6.04275" stroke-linecap="round" stroke-linejoin="round"/>
<path d="M108.171 140.239H135.142M135.142 131.721V148.046" stroke="#153150" stroke-width="6.04275" stroke-linecap="round" stroke-linejoin="round"/>
<path d="M168.617 181.721H160.595C157.763 181.721 155.403 179.362 155.403 176.53C155.403 173.698 157.763 171.339 160.595 171.339H168.617C171.449 171.339 173.809 173.698 173.809 176.53C173.809 179.362 171.921 181.721 168.617 181.721Z" fill="#153150"/>
<path d="M164.641 176.53H199.882C204.332 176.53 207.939 172.923 207.939 168.473V160.773M168.617 181.721H160.595C157.763 181.721 155.403 179.362 155.403 176.53C155.403 173.698 157.763 171.339 160.595 171.339H168.617C171.449 171.339 173.809 173.698 173.809 176.53C173.809 179.362 171.921 181.721 168.617 181.721Z" stroke="#153150" stroke-width="6.04275" stroke-linecap="round" stroke-linejoin="round"/>
<path d="M219.132 53.8173C227.436 53.6793 229.711 58.2831 231.274 64.1203" stroke="#153150" stroke-width="6.04275" stroke-linecap="round" stroke-linejoin="round"/>
<path d="M221.086 199.266C229.129 198.155 232.952 192.961 233.074 185.63" stroke="#153150" stroke-width="6.04275" stroke-linecap="round" stroke-linejoin="round"/>
<path opacity="0.15" d="M250.733 146.096C250.733 171.58 167.674 184.794 167.674 139.489C167.674 88.0489 235.16 110.701 250.733 99.8471C250.733 99.3752 250.733 132.882 250.733 146.096Z" fill="#153150"/>
<path d="M234.216 157.895L209.675 158.839C177.584 160.255 177.584 109.758 209.675 108.815L234.216 107.871C246.958 107.399 257.34 96.5444 257.34 83.3303V81.9146V133.355C257.34 146.097 246.958 157.423 234.216 157.895Z" fill="#0DBAEC" stroke="#153150" stroke-width="6.04275" stroke-linecap="round" stroke-linejoin="round"/>
<line x1="245.605" y1="120.071" x2="245.605" y2="134.359" stroke="#153150" stroke-width="6.04275" stroke-linecap="round" stroke-linejoin="round"/>
<path d="M25.0278 37.033V31.518C25.0278 25.1183 30.0396 19.8237 36.4296 19.471C104.788 15.6973 147.358 15.6941 214.596 19.4613C220.981 19.8191 225.984 25.1116 225.984 31.5067V40.0176" stroke="#153150" stroke-width="6.04275" stroke-linecap="round" stroke-linejoin="round"/>
<circle cx="212.734" cy="133.898" r="9.80368" fill="#FFD168" stroke="#153150" stroke-width="6.04275" stroke-linecap="round" stroke-linejoin="round"/>
<path d="M100.187 120.14H75.647C69.9838 120.14 65.2645 115.421 65.2645 109.758V95.5997C65.2645 89.9365 69.9838 85.2172 75.647 85.2172H100.187C105.85 85.2172 110.57 89.9365 110.57 95.5997V109.758C110.57 115.421 106.322 120.14 100.187 120.14Z" fill="#153150" stroke="#153150" stroke-width="6.04275" stroke-linecap="round" stroke-linejoin="round"/>
<path d="M108.171 100.011H133.367" stroke="#153150" stroke-width="6.04275" stroke-linecap="round" stroke-linejoin="round"/>
<path d="M167.674 120.14H143.133C137.47 120.14 132.751 115.421 132.751 109.758V95.5997C132.751 89.9365 137.47 85.2172 143.133 85.2172H167.674C173.337 85.2172 178.056 89.9365 178.056 95.5997V109.758C178.056 115.421 173.337 120.14 167.674 120.14Z" fill="#153150" stroke="#153150" stroke-width="6.04275" stroke-linecap="round" stroke-linejoin="round"/>
<path d="M143.05 93.0588L143.05 98.5084M143.05 107.241L143.05 107.579" stroke="white" stroke-width="6.04275" stroke-linecap="round" stroke-linejoin="round"/>
<path d="M75.9791 93.0588L75.9791 98.5084M75.9791 107.241L75.9791 107.579" stroke="white" stroke-width="6.04275" stroke-linecap="round" stroke-linejoin="round"/>
</svg>
