<svg width="400" height="400" viewBox="0 0 400 400" fill="none" xmlns="http://www.w3.org/2000/svg">
<path d="M195.38 107.131C285.531 162.001 411.669 338.595 334.977 338.595C278.329 338.595 115.85 339.856 66.0635 339.856C16.2767 339.856 8.1156 287.004 24.8794 215.61C50.0565 108.392 8.0273 -6.87259 195.38 107.131Z" fill="#A682FF" fill-opacity="0.6146"/>
<path d="M382.023 329.765H40.1881V338.595H382.023V329.765Z" fill="white" stroke="#163050" stroke-width="4.36974" stroke-linecap="round" stroke-linejoin="round"/>
<path d="M218.464 329.765H152.506L155.382 295.708H215.588L218.464 329.765Z" fill="#D8D8D8" stroke="#163050" stroke-width="4.36974" stroke-linecap="round" stroke-linejoin="round"/>
<path d="M226.248 322.197H149.303V329.765H226.248V322.197Z" fill="#D8D8D8" stroke="#163050" stroke-width="4.36974" stroke-linecap="round" stroke-linejoin="round"/>
<path d="M309.244 115.33H76.3928C66.1521 115.33 57.8505 123.632 57.8505 133.872V278.427C57.8505 288.667 66.1521 296.969 76.3928 296.969H309.244C319.484 296.969 327.786 288.667 327.786 278.427V133.872C327.786 123.632 319.484 115.33 309.244 115.33Z" fill="#78E1F2" stroke="#163050" stroke-width="4.36974" stroke-linecap="round" stroke-linejoin="round"/>
<path d="M327.786 266.696V278.427C327.786 283.344 325.833 288.061 322.355 291.538C318.878 295.015 314.162 296.969 309.244 296.969H76.3928C71.4751 296.969 66.7587 295.015 63.2814 291.538C59.804 288.061 57.8505 283.344 57.8505 278.427V266.696H327.786Z" fill="#D8D8D8" stroke="#163050" stroke-width="4.36974" stroke-linecap="round" stroke-linejoin="round"/>
<path d="M315.499 156.956H288.354C274.609 156.956 263.467 168.098 263.467 181.843V222.888C263.467 236.633 274.609 247.775 288.354 247.775H315.499C329.244 247.775 340.386 236.633 340.386 222.888V181.843C340.386 168.098 329.244 156.956 315.499 156.956Z" fill="#F0CCBC" stroke="#163050" stroke-width="4.36974" stroke-linecap="round" stroke-linejoin="round"/>
<path d="M344.186 171.752V222.888C344.186 229.489 341.564 235.819 336.897 240.486C332.23 245.153 325.9 247.775 319.299 247.775H310.356C303.94 247.775 297.786 245.226 293.249 240.689C288.712 236.152 286.163 229.998 286.163 223.582V202.807C286.163 198.676 284.522 194.713 281.6 191.792C278.679 188.87 274.716 187.229 270.585 187.229C269.152 187.229 267.733 186.947 266.409 186.398C265.086 185.85 263.883 185.046 262.87 184.033C261.856 183.02 261.053 181.817 260.504 180.493C259.956 179.17 259.674 177.751 259.674 176.318V171.752C259.674 165.151 262.296 158.821 266.963 154.154C271.63 149.487 277.96 146.865 284.561 146.865H319.299C325.9 146.865 332.23 149.487 336.897 154.154C341.564 158.821 344.186 165.151 344.186 171.752Z" fill="#CE9D84" stroke="#163050" stroke-width="4.36974" stroke-linecap="round" stroke-linejoin="round"/>
<path d="M263.465 193.649V211.309L261.56 213.983C261.102 214.624 260.416 215.068 259.643 215.222C258.87 215.377 258.067 215.231 257.397 214.815C256.501 214.169 255.781 213.309 255.303 212.313C254.824 211.317 254.603 210.217 254.66 209.114V201.949C254.66 198.001 257.259 194.469 260.462 194.053L263.465 193.649Z" fill="#163050" stroke="#163050" stroke-width="4.36974" stroke-linecap="round" stroke-linejoin="round"/>
<path d="M261.564 196.336L283.663 202.365L254.651 204.888L255.269 200.612C255.356 199.896 255.594 199.207 255.969 198.591C256.344 197.975 256.847 197.447 257.444 197.041C258.04 196.636 258.716 196.363 259.427 196.242C260.138 196.12 260.866 196.152 261.564 196.336Z" fill="#163050" stroke="#163050" stroke-width="4.36974" stroke-linecap="round" stroke-linejoin="round"/>
<path d="M265.852 251.774L290.147 247.775H325.465L341.397 250.853C346.271 251.792 350.733 254.221 354.167 257.804C357.602 261.388 359.839 265.949 360.57 270.859L369.399 338.595H240.738L250.009 268.122C250.618 264.086 252.472 260.341 255.313 257.41C258.153 254.479 261.838 252.509 265.852 251.774Z" fill="white" stroke="#163050" stroke-width="4.36974" stroke-linecap="round" stroke-linejoin="round"/>
<path d="M182.727 307.06H210.478V329.765H163.807V325.981C163.807 320.963 165.8 316.15 169.348 312.602C172.897 309.054 177.709 307.06 182.727 307.06Z" fill="#F0CCBC" stroke="#163050" stroke-width="4.36974" stroke-linecap="round" stroke-linejoin="round"/>
<path d="M254.739 310.352C246.919 317.807 239.338 324.896 239.338 324.896C234.503 328.079 228.842 329.776 223.053 329.777H178.905V322.726C178.905 317.237 181.086 311.972 184.968 308.09C188.849 304.208 194.114 302.027 199.604 302.027H223.091L253.213 258.926" fill="white"/>
<path d="M254.739 310.352C246.919 317.807 239.338 324.896 239.338 324.896C234.503 328.079 228.842 329.776 223.053 329.777H178.905V322.726C178.905 317.237 181.086 311.972 184.968 308.09C188.849 304.208 194.114 302.027 199.604 302.027H223.091L253.213 258.926" stroke="#163050" stroke-width="4.36974" stroke-linecap="round" stroke-linejoin="round"/>
<path d="M192.817 289.401C196.997 289.401 200.386 286.013 200.386 281.833C200.386 277.653 196.997 274.264 192.817 274.264C188.637 274.264 185.249 277.653 185.249 281.833C185.249 286.013 188.637 289.401 192.817 289.401Z" fill="#2A455F"/>
<path d="M228.705 61.8476L234.949 68.0914L228.705 74.3352L234.949 80.5791L228.705 86.8229L222.461 80.5791L216.217 86.8229L209.974 80.5791L216.217 74.3352L209.974 68.0914L216.217 61.8476L222.461 68.0914L228.705 61.8476Z" fill="#FFD167"/>
<path d="M38.1248 287.786L42.6027 300.122L9.76891 314.023L4.00439 298.167L38.1248 287.786Z" fill="#78E1F2"/>
<path d="M344.639 110.776L333.16 104.469L348.763 72.405L363.522 80.5662L344.639 110.776ZM373.121 113.955L364.455 104.772L346.077 124.084L352.812 131.223L373.121 113.955Z" fill="#007A99"/>
<path d="M373.2 240.207C375.987 240.207 378.246 237.948 378.246 235.162C378.246 232.375 375.987 230.116 373.2 230.116C370.414 230.116 368.155 232.375 368.155 235.162C368.155 237.948 370.414 240.207 373.2 240.207Z" fill="#FFD167"/>
<g filter="url(#filter0_d_21234_106056)">
<path d="M192.821 249.037C223.473 249.037 248.321 224.188 248.321 193.536C248.321 162.884 223.473 138.035 192.821 138.035C162.168 138.035 137.32 162.884 137.32 193.536C137.32 224.188 162.168 249.037 192.821 249.037Z" fill="#007A99"/>
</g>
<path d="M203.475 198.317C203.877 197.913 204.355 197.593 204.881 197.374C205.407 197.156 205.971 197.043 206.54 197.043C207.11 197.043 207.674 197.156 208.2 197.374C208.726 197.593 209.203 197.913 209.605 198.317C210.253 198.963 210.766 199.731 211.116 200.576C211.467 201.421 211.647 202.327 211.647 203.242C211.647 204.157 211.467 205.063 211.116 205.908C210.766 206.753 210.253 207.521 209.605 208.168L197.231 220.567C196.585 221.215 195.817 221.728 194.972 222.078C194.126 222.429 193.22 222.609 192.306 222.609C191.391 222.609 190.485 222.429 189.64 222.078C188.794 221.728 188.026 221.215 187.38 220.567L174.98 208.181C174.333 207.534 173.82 206.766 173.469 205.921C173.119 205.076 172.939 204.17 172.939 203.255C172.939 202.34 173.119 201.434 173.469 200.589C173.82 199.744 174.333 198.976 174.98 198.329C175.382 197.926 175.86 197.605 176.386 197.387C176.912 197.169 177.476 197.056 178.046 197.056C178.615 197.056 179.179 197.169 179.705 197.387C180.231 197.605 180.709 197.926 181.111 198.329L187.418 204.636C188.064 205.283 188.832 205.797 189.677 206.147C190.523 206.497 191.428 206.678 192.343 206.678C193.258 206.678 194.164 206.497 195.009 206.147C195.855 205.797 196.622 205.283 197.269 204.636L203.475 198.317ZM222.724 178.841L210.892 167.022C209.62 165.778 207.907 165.09 206.128 165.109C204.35 165.128 202.651 165.852 201.406 167.123L192.287 176.255L183.318 167.287C182.688 166.669 181.943 166.181 181.124 165.852C180.306 165.523 179.43 165.358 178.548 165.367C177.666 165.377 176.794 165.56 175.983 165.907C175.172 166.253 174.437 166.756 173.82 167.387L161.761 179.459C160.492 180.705 159.77 182.405 159.754 184.183C159.737 185.962 160.427 187.675 161.673 188.944C162.053 189.326 162.505 189.629 163.003 189.834C163.501 190.04 164.035 190.145 164.574 190.143C165.133 190.14 165.686 190.027 166.201 189.811C166.716 189.595 167.183 189.279 167.576 188.881L173.669 182.776C174.285 182.145 175.02 181.642 175.832 181.295C176.643 180.949 177.515 180.766 178.397 180.756C179.279 180.747 180.154 180.912 180.973 181.241C181.791 181.57 182.537 182.058 183.167 182.675L189.158 188.654C189.801 189.297 190.64 189.706 191.542 189.815H191.656H192.16C192.719 189.812 193.272 189.699 193.787 189.483C194.302 189.267 194.77 188.951 195.163 188.553L201.268 182.448C202.513 181.178 204.211 180.453 205.99 180.435C207.768 180.416 209.482 181.104 210.753 182.347L216.745 188.326C217.528 189.109 218.589 189.549 219.696 189.549C220.803 189.549 221.865 189.109 222.648 188.326C223.284 187.693 223.788 186.94 224.132 186.111C224.476 185.282 224.654 184.393 224.654 183.495C224.654 182.63 224.482 181.772 224.149 180.973C223.815 180.175 223.327 179.45 222.711 178.841H222.724Z" fill="#F2F2F2"/>
<path d="M373.788 259.819L384.393 249.207L394.998 259.819L384.393 270.431L373.788 259.819Z" fill="#C8B1FF"/>
<defs>
<filter id="filter0_d_21234_106056" x="130.594" y="134.672" width="124.453" height="124.453" filterUnits="userSpaceOnUse" color-interpolation-filters="sRGB">
<feFlood flood-opacity="0" result="BackgroundImageFix"/>
<feColorMatrix in="SourceAlpha" type="matrix" values="0 0 0 0 0 0 0 0 0 0 0 0 0 0 0 0 0 0 127 0" result="hardAlpha"/>
<feOffset dy="3.36283"/>
<feGaussianBlur stdDeviation="3.36283"/>
<feColorMatrix type="matrix" values="0 0 0 0 0 0 0 0 0 0 0 0 0 0 0 0 0 0 0.15 0"/>
<feBlend mode="normal" in2="BackgroundImageFix" result="effect1_dropShadow_21234_106056"/>
<feBlend mode="normal" in="SourceGraphic" in2="effect1_dropShadow_21234_106056" result="shape"/>
</filter>
</defs>
</svg>
