<svg width="75" height="73" viewBox="0 0 75 73" fill="none" xmlns="http://www.w3.org/2000/svg">
<path opacity="0.4" d="M45.4824 3.26995C46.9534 3.80209 48.3415 4.4642 49.6381 5.23868M19.2819 10.0314C23.9977 4.69216 30.9441 1.67438 38.1843 1.90761M57.1813 12.3822C57.5619 12.9464 57.9181 13.5262 58.2487 14.1195" stroke="#B5BFC7" stroke-width="2.6076" stroke-miterlimit="10" stroke-linecap="round" stroke-linejoin="round"/>
<path opacity="0.4" d="M67.8925 7.61224C66.677 5.832 65.3098 4.19391 63.8164 2.70752M11.457 7.28626C9.15403 10.6039 7.46135 14.2997 6.45342 18.184M5.37643 27.3752C5.34676 25.992 5.40315 24.6135 5.54265 23.2477" stroke="#B5BFC7" stroke-width="2.6076" stroke-miterlimit="10" stroke-linecap="round" stroke-linejoin="round"/>
<path d="M31.4593 41.7733C22.4846 38.5522 17.8917 28.6942 21.0923 19.8484C21.3834 18.9861 21.803 18.0603 22.2542 17.3582C26.2845 10.1769 35.0528 6.71654 43.1942 9.55178C51.2073 12.4505 55.8046 20.7104 54.2422 28.8255C54.0473 29.72 53.8523 30.6145 53.5612 31.4768C50.2644 40.2903 40.4662 44.8987 31.4593 41.7733Z" fill="#E3EDFF" stroke="#163150" stroke-width="2.6076" stroke-miterlimit="10" stroke-linecap="round" stroke-linejoin="round"/>
<path opacity="0.2" d="M31.4593 41.7707C22.4847 38.5496 17.8917 28.6915 21.0923 19.8457C21.3834 18.9834 21.803 18.0576 22.2542 17.3556C27.7496 14.078 34.5535 13.2655 40.964 15.5206C47.4707 17.808 52.0769 22.8712 54.2422 28.8228C54.0473 29.7173 53.8523 30.6118 53.5612 31.4741C50.2644 40.2878 40.4662 44.896 31.4593 41.7707Z" fill="#003C77"/>
<path d="M68.6169 37.8228L33.8267 44.9103L35.4911 53.0207L70.2814 45.933L68.6169 37.8228Z" fill="#E3EDFF"/>
<path d="M71.1644 30.0627L36.3742 37.1504L38.0386 45.2607L72.8288 38.1731L71.1644 30.0627Z" fill="#FFD166"/>
<path d="M60.5546 23.7759L25.7644 30.8636L27.4288 38.9739L62.219 31.8863L60.5546 23.7759Z" fill="#FFD166"/>
<path opacity="0.2" d="M51.7187 41.2646L33.8267 44.9097L35.4911 53.02L53.3833 49.3749L51.7187 41.2646Z" fill="#003C77"/>
<path d="M54.2664 33.5022L36.3742 37.1473L38.0386 45.2576L55.9308 41.6126L54.2664 33.5022Z" fill="#FFAA00"/>
<path d="M43.6564 27.2175L25.7644 30.8625L27.4288 38.9729L45.3209 35.3278L43.6564 27.2175Z" fill="#FFAA00"/>
<path d="M69.9015 46.6129L35.1113 53.7005L33.4468 45.5902L68.237 38.5025L69.9015 46.6129ZM70.5486 29.5822L35.7584 36.6698L37.4228 44.7802L72.213 37.6925L70.5486 29.5822ZM59.938 23.2944L25.1478 30.3821L26.8122 38.4925L61.6024 31.4048L59.938 23.2944Z" stroke="#163150" stroke-width="2.6076" stroke-miterlimit="10" stroke-linecap="round" stroke-linejoin="round"/>
<path d="M18.7957 46.736C25.5387 53.7523 36.7137 53.994 43.7558 47.2759C50.7979 40.5578 51.0405 29.4238 44.2976 22.4074C37.5547 15.3911 26.3797 15.1494 19.3375 21.8676C12.2954 28.5858 12.0528 39.7198 18.7957 46.736Z" fill="url(#paint0_radial_21234_105719)" stroke="#163150" stroke-width="2.6076" stroke-miterlimit="10" stroke-linecap="round" stroke-linejoin="round"/>
<path d="M25.8598 25.4404C33.5716 20.6025 43.4152 26.6065 42.7886 35.6012L32.1157 34.727L38.8909 43.2384C33.8469 47.4905 26.0491 46.3924 22.3707 40.6648C19.1103 35.5181 20.6942 28.6889 25.8598 25.4404Z" fill="#FFC835" stroke="#FFAE25" stroke-width="2.6076" stroke-miterlimit="10" stroke-linecap="round" stroke-linejoin="round"/>
<path d="M41.3776 48.4924H5.59482V64.9536H13.6939C14.2995 64.9536 14.9022 65.0377 15.4845 65.2034L33.2251 70.2536C34.776 70.6951 36.4363 70.5479 37.8846 69.8405L69.984 54.1633C72.1612 53.1001 73.0516 50.4729 71.9673 48.3123C70.9557 46.2967 68.5666 45.3845 66.4622 46.2105L48.8167 53.1363C47.0048 53.8474 44.9784 52.8085 44.5061 50.9261C44.1473 49.4958 42.8573 48.4924 41.3776 48.4924Z" fill="white"/>
<path d="M8.60037 48.4922H40.6005C43.2506 48.4922 45.399 50.6326 45.399 53.2732C45.399 55.6746 43.6111 57.7033 41.2211 58.0139L28.1262 59.7157" stroke="#163050" stroke-width="2.6076" stroke-miterlimit="10" stroke-linecap="round" stroke-linejoin="round"/>
<path d="M8.60037 64.9536H14.6083L32.0146 70.5279C34.3323 71.2702 36.8515 71.0588 39.0121 69.9412L70.5047 53.6493C72.7373 52.4942 73.4688 49.6636 72.0732 47.5781C70.9696 45.9286 68.8604 45.2699 67.0091 45.9965L45.399 54.4783" stroke="#163050" stroke-width="2.6076" stroke-miterlimit="10" stroke-linecap="round" stroke-linejoin="round"/>
<path d="M14.7203 46.0493H1.68417V69.4281H14.7203V46.0493Z" fill="#05D5FC"/>
<path d="M14.7203 63.0522H1.68417V69.4283H14.7203V63.0522Z" fill="#1EB8E7"/>
<path d="M14.7203 46.0493H1.68417V69.4281H14.7203V46.0493Z" stroke="#163050" stroke-width="2.6076" stroke-miterlimit="10" stroke-linecap="round" stroke-linejoin="round"/>
<defs>
<radialGradient id="paint0_radial_21234_105719" cx="0" cy="0" r="1" gradientUnits="userSpaceOnUse" gradientTransform="translate(30.9987 20.7164) rotate(79.1973) scale(14.3494 14.3986)">
<stop offset="0.0648649" stop-color="#FFEA80"/>
<stop offset="0.1087" stop-color="#FFE77D"/>
<stop offset="0.4689" stop-color="#FFD76C"/>
<stop offset="0.735" stop-color="#FFD166"/>
</radialGradient>
</defs>
</svg>
